<svg xmlns="http://www.w3.org/2000/svg" viewBox="0 0 64 64" role="img" aria-label="Glow and Grace favicon">
  <defs>
    <linearGradient id="g" x1="0" y1="0" x2="1" y2="1">
      <stop offset="0%" stop-color="#df8db1"/>
      <stop offset="100%" stop-color="#cf6f9a"/>
    </linearGradient>
  </defs>
  <rect width="64" height="64" rx="16" fill="#fff8fb"/>
  <circle cx="32" cy="32" r="20" fill="url(#g)" opacity="0.25"/>
  <path d="M20 34c0-7 5-12 12-12 4 0 8 2 10 5l-4 3c-1-2-3-3-6-3-4 0-7 3-7 7s3 7 7 7c3 0 5-1 6-3l4 3c-2 3-6 5-10 5-7 0-12-5-12-12z" fill="#cf6f9a"/>
</svg>
